<mxfile host="app.diagrams.net" modified="2024-01-27T10:14:26.006Z" agent="Mozilla/5.0 (Windows NT 10.0; Win64; x64) AppleWebKit/537.36 (KHTML, like Gecko) Chrome/120.0.0.0 Safari/537.36" etag="vAUp7WaW5yibZhg7hGTi" version="23.0.2" type="google" pages="3">
  <diagram name="System architect" id="ye4naCkdz3K9mpjeDB2i">
    <mxGraphModel grid="1" page="1" gridSize="10" guides="1" tooltips="1" connect="1" arrows="1" fold="1" pageScale="1" pageWidth="1169" pageHeight="827" math="0" shadow="0">
      <root>
        <mxCell id="0" />
        <mxCell id="1" parent="0" />
        <mxCell id="w9aZNFqrLfS7_pEqQdWg-1" style="edgeStyle=orthogonalEdgeStyle;rounded=0;orthogonalLoop=1;jettySize=auto;html=1;dashed=1;" edge="1" parent="1" source="w9aZNFqrLfS7_pEqQdWg-2" target="w9aZNFqrLfS7_pEqQdWg-13">
          <mxGeometry relative="1" as="geometry">
            <Array as="points">
              <mxPoint x="640" y="240" />
            </Array>
          </mxGeometry>
        </mxCell>
        <mxCell id="w9aZNFqrLfS7_pEqQdWg-2" value="Cloudinary&lt;br style=&quot;border-color: var(--border-color);&quot;&gt;(Authentication)" style="ellipse;whiteSpace=wrap;html=1;" vertex="1" parent="1">
          <mxGeometry x="460" y="200" width="120" height="80" as="geometry" />
        </mxCell>
        <mxCell id="w9aZNFqrLfS7_pEqQdWg-3" value="DB&lt;br&gt;(PostgreSQL)" style="ellipse;whiteSpace=wrap;html=1;" vertex="1" parent="1">
          <mxGeometry x="840" y="330" width="120" height="80" as="geometry" />
        </mxCell>
        <mxCell id="w9aZNFqrLfS7_pEqQdWg-4" style="rounded=0;orthogonalLoop=1;jettySize=auto;html=1;startArrow=classic;startFill=0;" edge="1" parent="1" source="w9aZNFqrLfS7_pEqQdWg-13" target="w9aZNFqrLfS7_pEqQdWg-28">
          <mxGeometry relative="1" as="geometry">
            <mxPoint x="920" y="360" as="sourcePoint" />
          </mxGeometry>
        </mxCell>
        <mxCell id="w9aZNFqrLfS7_pEqQdWg-5" style="edgeStyle=orthogonalEdgeStyle;rounded=0;orthogonalLoop=1;jettySize=auto;html=1;startArrow=classic;startFill=0;" edge="1" parent="1" source="w9aZNFqrLfS7_pEqQdWg-13" target="w9aZNFqrLfS7_pEqQdWg-3">
          <mxGeometry relative="1" as="geometry">
            <Array as="points">
              <mxPoint x="830" y="370" />
              <mxPoint x="830" y="370" />
            </Array>
            <mxPoint x="980" y="320" as="sourcePoint" />
          </mxGeometry>
        </mxCell>
        <mxCell id="w9aZNFqrLfS7_pEqQdWg-7" style="edgeStyle=orthogonalEdgeStyle;rounded=0;orthogonalLoop=1;jettySize=auto;html=1;startArrow=classic;startFill=0;" edge="1" parent="1" source="w9aZNFqrLfS7_pEqQdWg-9" target="w9aZNFqrLfS7_pEqQdWg-13">
          <mxGeometry relative="1" as="geometry">
            <Array as="points" />
            <mxPoint x="620" y="320" as="sourcePoint" />
          </mxGeometry>
        </mxCell>
        <mxCell id="w9aZNFqrLfS7_pEqQdWg-8" value="Call" style="edgeLabel;html=1;align=center;verticalAlign=middle;resizable=0;points=[];" connectable="0" vertex="1" parent="w9aZNFqrLfS7_pEqQdWg-7">
          <mxGeometry x="0.3" y="-1" relative="1" as="geometry">
            <mxPoint x="-18" y="-1" as="offset" />
          </mxGeometry>
        </mxCell>
        <mxCell id="w9aZNFqrLfS7_pEqQdWg-9" value="UI&lt;br&gt;(React)" style="ellipse;whiteSpace=wrap;html=1;" vertex="1" parent="1">
          <mxGeometry x="340" y="330" width="120" height="80" as="geometry" />
        </mxCell>
        <mxCell id="w9aZNFqrLfS7_pEqQdWg-10" style="edgeStyle=orthogonalEdgeStyle;rounded=0;orthogonalLoop=1;jettySize=auto;html=1;dashed=1;" edge="1" parent="1" source="w9aZNFqrLfS7_pEqQdWg-9" target="w9aZNFqrLfS7_pEqQdWg-2">
          <mxGeometry relative="1" as="geometry">
            <Array as="points">
              <mxPoint x="400" y="250" />
            </Array>
          </mxGeometry>
        </mxCell>
        <mxCell id="w9aZNFqrLfS7_pEqQdWg-13" value="Server&lt;br&gt;(ExpressJS)" style="ellipse;whiteSpace=wrap;html=1;" vertex="1" parent="1">
          <mxGeometry x="580" y="330" width="120" height="80" as="geometry" />
        </mxCell>
        <mxCell id="w9aZNFqrLfS7_pEqQdWg-14" style="edgeStyle=orthogonalEdgeStyle;rounded=0;orthogonalLoop=1;jettySize=auto;html=1;startArrow=none;startFill=0;" edge="1" parent="1" source="w9aZNFqrLfS7_pEqQdWg-15" target="w9aZNFqrLfS7_pEqQdWg-9">
          <mxGeometry relative="1" as="geometry" />
        </mxCell>
        <mxCell id="w9aZNFqrLfS7_pEqQdWg-15" value="" style="shape=umlActor;verticalLabelPosition=bottom;verticalAlign=top;html=1;outlineConnect=0;" vertex="1" parent="1">
          <mxGeometry x="220" y="340" width="30" height="60" as="geometry" />
        </mxCell>
        <mxCell id="w9aZNFqrLfS7_pEqQdWg-16" style="edgeStyle=orthogonalEdgeStyle;rounded=0;orthogonalLoop=1;jettySize=auto;html=1;" edge="1" parent="1" source="w9aZNFqrLfS7_pEqQdWg-9" target="w9aZNFqrLfS7_pEqQdWg-19">
          <mxGeometry relative="1" as="geometry">
            <mxPoint x="760" y="570" as="targetPoint" />
            <Array as="points">
              <mxPoint x="400" y="510" />
            </Array>
          </mxGeometry>
        </mxCell>
        <mxCell id="w9aZNFqrLfS7_pEqQdWg-18" style="edgeStyle=orthogonalEdgeStyle;rounded=0;orthogonalLoop=1;jettySize=auto;html=1;" edge="1" parent="1" source="w9aZNFqrLfS7_pEqQdWg-19" target="w9aZNFqrLfS7_pEqQdWg-13">
          <mxGeometry relative="1" as="geometry">
            <Array as="points">
              <mxPoint x="640" y="510" />
            </Array>
          </mxGeometry>
        </mxCell>
        <mxCell id="w9aZNFqrLfS7_pEqQdWg-19" value="Cloudinary&lt;br&gt;(Registration)" style="ellipse;whiteSpace=wrap;html=1;" vertex="1" parent="1">
          <mxGeometry x="460" y="470" width="120" height="80" as="geometry" />
        </mxCell>
        <mxCell id="w9aZNFqrLfS7_pEqQdWg-28" value="AI Service&lt;br&gt;(Rekognition)" style="ellipse;whiteSpace=wrap;html=1;" vertex="1" parent="1">
          <mxGeometry x="730" y="470" width="120" height="80" as="geometry" />
        </mxCell>
      </root>
    </mxGraphModel>
  </diagram>
  <diagram id="0x-iNqALTS0jzn11tdiq" name="System flow">
    <mxGraphModel grid="1" page="1" gridSize="10" guides="1" tooltips="1" connect="1" arrows="1" fold="1" pageScale="1" pageWidth="1169" pageHeight="827" math="0" shadow="0">
      <root>
        <mxCell id="0" />
        <mxCell id="1" parent="0" />
        <mxCell id="kaeZtPCoqRUy3_b2xK3W-1" value="Yes" style="edgeStyle=orthogonalEdgeStyle;rounded=0;orthogonalLoop=1;jettySize=auto;html=1;" edge="1" parent="1" source="kaeZtPCoqRUy3_b2xK3W-40" target="kaeZtPCoqRUy3_b2xK3W-4">
          <mxGeometry relative="1" as="geometry" />
        </mxCell>
        <mxCell id="kaeZtPCoqRUy3_b2xK3W-2" value="Start" style="ellipse;whiteSpace=wrap;html=1;" vertex="1" parent="1">
          <mxGeometry x="1190" y="100" width="120" height="80" as="geometry" />
        </mxCell>
        <mxCell id="kaeZtPCoqRUy3_b2xK3W-3" value="" style="edgeStyle=orthogonalEdgeStyle;rounded=0;orthogonalLoop=1;jettySize=auto;html=1;" edge="1" parent="1" source="kaeZtPCoqRUy3_b2xK3W-4" target="kaeZtPCoqRUy3_b2xK3W-7">
          <mxGeometry relative="1" as="geometry" />
        </mxCell>
        <mxCell id="kaeZtPCoqRUy3_b2xK3W-4" value="Take a photo" style="whiteSpace=wrap;html=1;" vertex="1" parent="1">
          <mxGeometry x="1690" y="110" width="120" height="60" as="geometry" />
        </mxCell>
        <mxCell id="kaeZtPCoqRUy3_b2xK3W-5" value="No" style="edgeStyle=orthogonalEdgeStyle;rounded=0;orthogonalLoop=1;jettySize=auto;html=1;" edge="1" parent="1" source="kaeZtPCoqRUy3_b2xK3W-7" target="kaeZtPCoqRUy3_b2xK3W-4">
          <mxGeometry relative="1" as="geometry">
            <Array as="points">
              <mxPoint x="1870" y="280" />
              <mxPoint x="1870" y="140" />
            </Array>
          </mxGeometry>
        </mxCell>
        <mxCell id="kaeZtPCoqRUy3_b2xK3W-6" value="Yes" style="edgeStyle=orthogonalEdgeStyle;rounded=0;orthogonalLoop=1;jettySize=auto;html=1;" edge="1" parent="1" source="kaeZtPCoqRUy3_b2xK3W-7" target="kaeZtPCoqRUy3_b2xK3W-9">
          <mxGeometry relative="1" as="geometry" />
        </mxCell>
        <mxCell id="kaeZtPCoqRUy3_b2xK3W-7" value="Detect a face?" style="rhombus;whiteSpace=wrap;html=1;" vertex="1" parent="1">
          <mxGeometry x="1695" y="240" width="110" height="80" as="geometry" />
        </mxCell>
        <mxCell id="kaeZtPCoqRUy3_b2xK3W-8" value="" style="edgeStyle=orthogonalEdgeStyle;rounded=0;orthogonalLoop=1;jettySize=auto;html=1;" edge="1" parent="1" source="kaeZtPCoqRUy3_b2xK3W-9" target="kaeZtPCoqRUy3_b2xK3W-12">
          <mxGeometry relative="1" as="geometry" />
        </mxCell>
        <mxCell id="kaeZtPCoqRUy3_b2xK3W-9" value="Input register info" style="whiteSpace=wrap;html=1;" vertex="1" parent="1">
          <mxGeometry x="1690" y="410" width="120" height="60" as="geometry" />
        </mxCell>
        <mxCell id="kaeZtPCoqRUy3_b2xK3W-10" value="Yes" style="edgeStyle=orthogonalEdgeStyle;rounded=0;orthogonalLoop=1;jettySize=auto;html=1;" edge="1" parent="1" source="kaeZtPCoqRUy3_b2xK3W-12" target="kaeZtPCoqRUy3_b2xK3W-14">
          <mxGeometry relative="1" as="geometry" />
        </mxCell>
        <mxCell id="kaeZtPCoqRUy3_b2xK3W-11" value="No" style="edgeStyle=orthogonalEdgeStyle;rounded=0;orthogonalLoop=1;jettySize=auto;html=1;" edge="1" parent="1" source="kaeZtPCoqRUy3_b2xK3W-12" target="kaeZtPCoqRUy3_b2xK3W-9">
          <mxGeometry relative="1" as="geometry">
            <Array as="points">
              <mxPoint x="1950" y="530" />
              <mxPoint x="1750" y="530" />
            </Array>
          </mxGeometry>
        </mxCell>
        <mxCell id="kaeZtPCoqRUy3_b2xK3W-12" value="Valid?" style="rhombus;whiteSpace=wrap;html=1;" vertex="1" parent="1">
          <mxGeometry x="1910" y="400" width="80" height="80" as="geometry" />
        </mxCell>
        <mxCell id="kaeZtPCoqRUy3_b2xK3W-13" value="" style="edgeStyle=orthogonalEdgeStyle;rounded=0;orthogonalLoop=1;jettySize=auto;html=1;" edge="1" parent="1" source="kaeZtPCoqRUy3_b2xK3W-14" target="kaeZtPCoqRUy3_b2xK3W-17">
          <mxGeometry relative="1" as="geometry" />
        </mxCell>
        <mxCell id="kaeZtPCoqRUy3_b2xK3W-14" value="Store metadata in DB&lt;br&gt;Save photo to storage" style="whiteSpace=wrap;html=1;" vertex="1" parent="1">
          <mxGeometry x="2050" y="410" width="120" height="60" as="geometry" />
        </mxCell>
        <mxCell id="kaeZtPCoqRUy3_b2xK3W-15" value="Yes" style="edgeStyle=orthogonalEdgeStyle;rounded=0;orthogonalLoop=1;jettySize=auto;html=1;" edge="1" parent="1" source="kaeZtPCoqRUy3_b2xK3W-17" target="kaeZtPCoqRUy3_b2xK3W-18">
          <mxGeometry relative="1" as="geometry" />
        </mxCell>
        <mxCell id="kaeZtPCoqRUy3_b2xK3W-16" value="No" style="edgeStyle=orthogonalEdgeStyle;rounded=0;orthogonalLoop=1;jettySize=auto;html=1;" edge="1" parent="1" source="kaeZtPCoqRUy3_b2xK3W-17" target="kaeZtPCoqRUy3_b2xK3W-14">
          <mxGeometry relative="1" as="geometry">
            <Array as="points">
              <mxPoint x="2210" y="580" />
              <mxPoint x="2210" y="440" />
            </Array>
          </mxGeometry>
        </mxCell>
        <mxCell id="kaeZtPCoqRUy3_b2xK3W-17" value="Success?" style="rhombus;whiteSpace=wrap;html=1;" vertex="1" parent="1">
          <mxGeometry x="2070" y="540" width="80" height="80" as="geometry" />
        </mxCell>
        <mxCell id="kaeZtPCoqRUy3_b2xK3W-18" value="End" style="ellipse;whiteSpace=wrap;html=1;" vertex="1" parent="1">
          <mxGeometry x="2050" y="690" width="120" height="80" as="geometry" />
        </mxCell>
        <mxCell id="kaeZtPCoqRUy3_b2xK3W-19" value="" style="edgeStyle=orthogonalEdgeStyle;rounded=0;orthogonalLoop=1;jettySize=auto;html=1;" edge="1" parent="1" source="kaeZtPCoqRUy3_b2xK3W-20" target="kaeZtPCoqRUy3_b2xK3W-22">
          <mxGeometry relative="1" as="geometry" />
        </mxCell>
        <mxCell id="kaeZtPCoqRUy3_b2xK3W-20" value="Start" style="ellipse;whiteSpace=wrap;html=1;" vertex="1" parent="1">
          <mxGeometry x="1310" y="940" width="120" height="80" as="geometry" />
        </mxCell>
        <mxCell id="kaeZtPCoqRUy3_b2xK3W-21" value="" style="edgeStyle=orthogonalEdgeStyle;rounded=0;orthogonalLoop=1;jettySize=auto;html=1;" edge="1" parent="1" source="kaeZtPCoqRUy3_b2xK3W-22" target="kaeZtPCoqRUy3_b2xK3W-25">
          <mxGeometry relative="1" as="geometry" />
        </mxCell>
        <mxCell id="kaeZtPCoqRUy3_b2xK3W-22" value="Take a photo" style="whiteSpace=wrap;html=1;" vertex="1" parent="1">
          <mxGeometry x="1510" y="950" width="120" height="60" as="geometry" />
        </mxCell>
        <mxCell id="kaeZtPCoqRUy3_b2xK3W-23" value="No" style="edgeStyle=orthogonalEdgeStyle;rounded=0;orthogonalLoop=1;jettySize=auto;html=1;" edge="1" parent="1" source="kaeZtPCoqRUy3_b2xK3W-25" target="kaeZtPCoqRUy3_b2xK3W-22">
          <mxGeometry relative="1" as="geometry">
            <Array as="points">
              <mxPoint x="1690" y="1120" />
              <mxPoint x="1690" y="980" />
            </Array>
          </mxGeometry>
        </mxCell>
        <mxCell id="kaeZtPCoqRUy3_b2xK3W-24" value="Yes" style="edgeStyle=orthogonalEdgeStyle;rounded=0;orthogonalLoop=1;jettySize=auto;html=1;" edge="1" parent="1" source="kaeZtPCoqRUy3_b2xK3W-25" target="kaeZtPCoqRUy3_b2xK3W-27">
          <mxGeometry relative="1" as="geometry">
            <mxPoint x="1570" y="1250" as="targetPoint" />
          </mxGeometry>
        </mxCell>
        <mxCell id="kaeZtPCoqRUy3_b2xK3W-25" value="Detect a face?" style="rhombus;whiteSpace=wrap;html=1;" vertex="1" parent="1">
          <mxGeometry x="1515" y="1080" width="110" height="80" as="geometry" />
        </mxCell>
        <mxCell id="kaeZtPCoqRUy3_b2xK3W-26" value="" style="edgeStyle=orthogonalEdgeStyle;rounded=0;orthogonalLoop=1;jettySize=auto;html=1;" edge="1" parent="1" source="kaeZtPCoqRUy3_b2xK3W-27" target="kaeZtPCoqRUy3_b2xK3W-30">
          <mxGeometry relative="1" as="geometry" />
        </mxCell>
        <mxCell id="kaeZtPCoqRUy3_b2xK3W-27" value="Compare face data" style="rounded=0;whiteSpace=wrap;html=1;" vertex="1" parent="1">
          <mxGeometry x="1510" y="1250" width="120" height="60" as="geometry" />
        </mxCell>
        <mxCell id="kaeZtPCoqRUy3_b2xK3W-28" value="Yes" style="edgeStyle=orthogonalEdgeStyle;rounded=0;orthogonalLoop=1;jettySize=auto;html=1;" edge="1" parent="1" source="kaeZtPCoqRUy3_b2xK3W-30" target="kaeZtPCoqRUy3_b2xK3W-32">
          <mxGeometry relative="1" as="geometry" />
        </mxCell>
        <mxCell id="kaeZtPCoqRUy3_b2xK3W-29" value="No" style="edgeStyle=orthogonalEdgeStyle;rounded=0;orthogonalLoop=1;jettySize=auto;html=1;" edge="1" parent="1" source="kaeZtPCoqRUy3_b2xK3W-30" target="kaeZtPCoqRUy3_b2xK3W-27">
          <mxGeometry relative="1" as="geometry">
            <Array as="points">
              <mxPoint x="1770" y="1360" />
              <mxPoint x="1570" y="1360" />
            </Array>
          </mxGeometry>
        </mxCell>
        <mxCell id="kaeZtPCoqRUy3_b2xK3W-30" value="Exist?" style="rhombus;whiteSpace=wrap;html=1;rounded=0;" vertex="1" parent="1">
          <mxGeometry x="1730" y="1240" width="80" height="80" as="geometry" />
        </mxCell>
        <mxCell id="kaeZtPCoqRUy3_b2xK3W-31" value="" style="edgeStyle=orthogonalEdgeStyle;rounded=0;orthogonalLoop=1;jettySize=auto;html=1;" edge="1" parent="1" source="kaeZtPCoqRUy3_b2xK3W-32" target="kaeZtPCoqRUy3_b2xK3W-35">
          <mxGeometry relative="1" as="geometry" />
        </mxCell>
        <mxCell id="kaeZtPCoqRUy3_b2xK3W-32" value="Get info from DB&lt;br&gt;Authorize" style="whiteSpace=wrap;html=1;rounded=0;" vertex="1" parent="1">
          <mxGeometry x="1870" y="1250" width="120" height="60" as="geometry" />
        </mxCell>
        <mxCell id="kaeZtPCoqRUy3_b2xK3W-33" value="End" style="ellipse;whiteSpace=wrap;html=1;" vertex="1" parent="1">
          <mxGeometry x="2070" y="1380" width="120" height="80" as="geometry" />
        </mxCell>
        <mxCell id="kaeZtPCoqRUy3_b2xK3W-34" value="" style="edgeStyle=orthogonalEdgeStyle;rounded=0;orthogonalLoop=1;jettySize=auto;html=1;" edge="1" parent="1" source="kaeZtPCoqRUy3_b2xK3W-35" target="kaeZtPCoqRUy3_b2xK3W-33">
          <mxGeometry relative="1" as="geometry" />
        </mxCell>
        <mxCell id="kaeZtPCoqRUy3_b2xK3W-35" value="Check attendance&lt;br&gt;Save log" style="whiteSpace=wrap;html=1;rounded=0;" vertex="1" parent="1">
          <mxGeometry x="1870" y="1390" width="120" height="60" as="geometry" />
        </mxCell>
        <mxCell id="kaeZtPCoqRUy3_b2xK3W-36" value="" style="edgeStyle=orthogonalEdgeStyle;rounded=0;orthogonalLoop=1;jettySize=auto;html=1;" edge="1" parent="1" source="kaeZtPCoqRUy3_b2xK3W-2" target="kaeZtPCoqRUy3_b2xK3W-38">
          <mxGeometry relative="1" as="geometry">
            <mxPoint x="1360" y="140" as="sourcePoint" />
            <mxPoint x="1690" y="140" as="targetPoint" />
          </mxGeometry>
        </mxCell>
        <mxCell id="kaeZtPCoqRUy3_b2xK3W-37" value="" style="edgeStyle=orthogonalEdgeStyle;rounded=0;orthogonalLoop=1;jettySize=auto;html=1;" edge="1" parent="1" source="kaeZtPCoqRUy3_b2xK3W-38" target="kaeZtPCoqRUy3_b2xK3W-40">
          <mxGeometry relative="1" as="geometry" />
        </mxCell>
        <mxCell id="kaeZtPCoqRUy3_b2xK3W-38" value="Login" style="rounded=0;whiteSpace=wrap;html=1;" vertex="1" parent="1">
          <mxGeometry x="1360" y="110" width="120" height="60" as="geometry" />
        </mxCell>
        <mxCell id="kaeZtPCoqRUy3_b2xK3W-39" value="No" style="edgeStyle=orthogonalEdgeStyle;rounded=0;orthogonalLoop=1;jettySize=auto;html=1;" edge="1" parent="1" source="kaeZtPCoqRUy3_b2xK3W-40" target="kaeZtPCoqRUy3_b2xK3W-38">
          <mxGeometry relative="1" as="geometry">
            <Array as="points">
              <mxPoint x="1580" y="220" />
              <mxPoint x="1420" y="220" />
            </Array>
          </mxGeometry>
        </mxCell>
        <mxCell id="kaeZtPCoqRUy3_b2xK3W-40" value="Success?" style="rhombus;whiteSpace=wrap;html=1;" vertex="1" parent="1">
          <mxGeometry x="1540" y="100" width="80" height="80" as="geometry" />
        </mxCell>
      </root>
    </mxGraphModel>
  </diagram>
  <diagram id="re-R1jiG4rf6PzhfkQui" name="ERD">
    <mxGraphModel grid="1" page="1" gridSize="10" guides="1" tooltips="1" connect="1" arrows="1" fold="1" pageScale="1" pageWidth="1169" pageHeight="827" math="0" shadow="0">
      <root>
        <mxCell id="0" />
        <mxCell id="1" parent="0" />
        <mxCell id="ZRBj9t9u71oSII5r2iZr-1" value="Employee" style="shape=table;startSize=30;container=1;collapsible=0;childLayout=tableLayout;fixedRows=1;rowLines=0;fontStyle=0;strokeColor=default;fontSize=16;" vertex="1" parent="1">
          <mxGeometry x="330" y="1090" width="200" height="180" as="geometry" />
        </mxCell>
        <mxCell id="ZRBj9t9u71oSII5r2iZr-2" value="" style="shape=tableRow;horizontal=0;startSize=0;swimlaneHead=0;swimlaneBody=0;top=0;left=0;bottom=0;right=0;collapsible=0;dropTarget=0;fillColor=none;points=[[0,0.5],[1,0.5]];portConstraint=eastwest;strokeColor=inherit;fontSize=16;" vertex="1" parent="ZRBj9t9u71oSII5r2iZr-1">
          <mxGeometry y="30" width="200" height="30" as="geometry" />
        </mxCell>
        <mxCell id="ZRBj9t9u71oSII5r2iZr-3" value="UUID" style="shape=partialRectangle;html=1;whiteSpace=wrap;connectable=0;fillColor=none;top=0;left=0;bottom=0;right=0;overflow=hidden;pointerEvents=1;strokeColor=inherit;fontSize=16;" vertex="1" parent="ZRBj9t9u71oSII5r2iZr-2">
          <mxGeometry width="60" height="30" as="geometry">
            <mxRectangle width="60" height="30" as="alternateBounds" />
          </mxGeometry>
        </mxCell>
        <mxCell id="ZRBj9t9u71oSII5r2iZr-4" value="&lt;b&gt;&lt;u&gt;Id&lt;/u&gt;&lt;/b&gt;" style="shape=partialRectangle;html=1;whiteSpace=wrap;connectable=0;fillColor=none;top=0;left=0;bottom=0;right=0;align=left;spacingLeft=6;overflow=hidden;strokeColor=inherit;fontSize=16;" vertex="1" parent="ZRBj9t9u71oSII5r2iZr-2">
          <mxGeometry x="60" width="140" height="30" as="geometry">
            <mxRectangle width="140" height="30" as="alternateBounds" />
          </mxGeometry>
        </mxCell>
        <mxCell id="ZRBj9t9u71oSII5r2iZr-8" value="" style="shape=tableRow;horizontal=0;startSize=0;swimlaneHead=0;swimlaneBody=0;top=0;left=0;bottom=0;right=0;collapsible=0;dropTarget=0;fillColor=none;points=[[0,0.5],[1,0.5]];portConstraint=eastwest;strokeColor=inherit;fontSize=16;" vertex="1" parent="ZRBj9t9u71oSII5r2iZr-1">
          <mxGeometry y="60" width="200" height="30" as="geometry" />
        </mxCell>
        <mxCell id="ZRBj9t9u71oSII5r2iZr-9" value="String" style="shape=partialRectangle;html=1;whiteSpace=wrap;connectable=0;fillColor=none;top=0;left=0;bottom=0;right=0;overflow=hidden;strokeColor=inherit;fontSize=16;" vertex="1" parent="ZRBj9t9u71oSII5r2iZr-8">
          <mxGeometry width="60" height="30" as="geometry">
            <mxRectangle width="60" height="30" as="alternateBounds" />
          </mxGeometry>
        </mxCell>
        <mxCell id="ZRBj9t9u71oSII5r2iZr-10" value="name" style="shape=partialRectangle;html=1;whiteSpace=wrap;connectable=0;fillColor=none;top=0;left=0;bottom=0;right=0;align=left;spacingLeft=6;overflow=hidden;strokeColor=inherit;fontSize=16;" vertex="1" parent="ZRBj9t9u71oSII5r2iZr-8">
          <mxGeometry x="60" width="140" height="30" as="geometry">
            <mxRectangle width="140" height="30" as="alternateBounds" />
          </mxGeometry>
        </mxCell>
        <mxCell id="xeD0g9C2wEjiB1h100mI-84" style="shape=tableRow;horizontal=0;startSize=0;swimlaneHead=0;swimlaneBody=0;top=0;left=0;bottom=0;right=0;collapsible=0;dropTarget=0;fillColor=none;points=[[0,0.5],[1,0.5]];portConstraint=eastwest;strokeColor=inherit;fontSize=16;" vertex="1" parent="ZRBj9t9u71oSII5r2iZr-1">
          <mxGeometry y="90" width="200" height="30" as="geometry" />
        </mxCell>
        <mxCell id="xeD0g9C2wEjiB1h100mI-85" value="String" style="shape=partialRectangle;html=1;whiteSpace=wrap;connectable=0;fillColor=none;top=0;left=0;bottom=0;right=0;overflow=hidden;strokeColor=inherit;fontSize=16;" vertex="1" parent="xeD0g9C2wEjiB1h100mI-84">
          <mxGeometry width="60" height="30" as="geometry">
            <mxRectangle width="60" height="30" as="alternateBounds" />
          </mxGeometry>
        </mxCell>
        <mxCell id="xeD0g9C2wEjiB1h100mI-86" value="status" style="shape=partialRectangle;html=1;whiteSpace=wrap;connectable=0;fillColor=none;top=0;left=0;bottom=0;right=0;align=left;spacingLeft=6;overflow=hidden;strokeColor=inherit;fontSize=16;" vertex="1" parent="xeD0g9C2wEjiB1h100mI-84">
          <mxGeometry x="60" width="140" height="30" as="geometry">
            <mxRectangle width="140" height="30" as="alternateBounds" />
          </mxGeometry>
        </mxCell>
        <mxCell id="ZRBj9t9u71oSII5r2iZr-11" style="shape=tableRow;horizontal=0;startSize=0;swimlaneHead=0;swimlaneBody=0;top=0;left=0;bottom=0;right=0;collapsible=0;dropTarget=0;fillColor=none;points=[[0,0.5],[1,0.5]];portConstraint=eastwest;strokeColor=inherit;fontSize=16;" vertex="1" parent="ZRBj9t9u71oSII5r2iZr-1">
          <mxGeometry y="120" width="200" height="30" as="geometry" />
        </mxCell>
        <mxCell id="ZRBj9t9u71oSII5r2iZr-12" value="String" style="shape=partialRectangle;html=1;whiteSpace=wrap;connectable=0;fillColor=none;top=0;left=0;bottom=0;right=0;overflow=hidden;strokeColor=inherit;fontSize=16;" vertex="1" parent="ZRBj9t9u71oSII5r2iZr-11">
          <mxGeometry width="60" height="30" as="geometry">
            <mxRectangle width="60" height="30" as="alternateBounds" />
          </mxGeometry>
        </mxCell>
        <mxCell id="ZRBj9t9u71oSII5r2iZr-13" value="rekognitionId" style="shape=partialRectangle;html=1;whiteSpace=wrap;connectable=0;fillColor=none;top=0;left=0;bottom=0;right=0;align=left;spacingLeft=6;overflow=hidden;strokeColor=inherit;fontSize=16;" vertex="1" parent="ZRBj9t9u71oSII5r2iZr-11">
          <mxGeometry x="60" width="140" height="30" as="geometry">
            <mxRectangle width="140" height="30" as="alternateBounds" />
          </mxGeometry>
        </mxCell>
        <mxCell id="ZRBj9t9u71oSII5r2iZr-14" style="shape=tableRow;horizontal=0;startSize=0;swimlaneHead=0;swimlaneBody=0;top=0;left=0;bottom=0;right=0;collapsible=0;dropTarget=0;fillColor=none;points=[[0,0.5],[1,0.5]];portConstraint=eastwest;strokeColor=inherit;fontSize=16;" vertex="1" parent="ZRBj9t9u71oSII5r2iZr-1">
          <mxGeometry y="150" width="200" height="30" as="geometry" />
        </mxCell>
        <mxCell id="ZRBj9t9u71oSII5r2iZr-15" value="Date" style="shape=partialRectangle;html=1;whiteSpace=wrap;connectable=0;fillColor=none;top=0;left=0;bottom=0;right=0;overflow=hidden;strokeColor=inherit;fontSize=16;" vertex="1" parent="ZRBj9t9u71oSII5r2iZr-14">
          <mxGeometry width="60" height="30" as="geometry">
            <mxRectangle width="60" height="30" as="alternateBounds" />
          </mxGeometry>
        </mxCell>
        <mxCell id="ZRBj9t9u71oSII5r2iZr-16" value="createAt" style="shape=partialRectangle;html=1;whiteSpace=wrap;connectable=0;fillColor=none;top=0;left=0;bottom=0;right=0;align=left;spacingLeft=6;overflow=hidden;strokeColor=inherit;fontSize=16;" vertex="1" parent="ZRBj9t9u71oSII5r2iZr-14">
          <mxGeometry x="60" width="140" height="30" as="geometry">
            <mxRectangle width="140" height="30" as="alternateBounds" />
          </mxGeometry>
        </mxCell>
        <mxCell id="ZRBj9t9u71oSII5r2iZr-17" value="CheckIn" style="shape=table;startSize=30;container=1;collapsible=0;childLayout=tableLayout;fixedRows=1;rowLines=0;fontStyle=0;strokeColor=default;fontSize=16;" vertex="1" parent="1">
          <mxGeometry x="640" y="1070" width="180" height="120" as="geometry" />
        </mxCell>
        <mxCell id="ZRBj9t9u71oSII5r2iZr-18" value="" style="shape=tableRow;horizontal=0;startSize=0;swimlaneHead=0;swimlaneBody=0;top=0;left=0;bottom=0;right=0;collapsible=0;dropTarget=0;fillColor=none;points=[[0,0.5],[1,0.5]];portConstraint=eastwest;strokeColor=inherit;fontSize=16;" vertex="1" parent="ZRBj9t9u71oSII5r2iZr-17">
          <mxGeometry y="30" width="180" height="30" as="geometry" />
        </mxCell>
        <mxCell id="ZRBj9t9u71oSII5r2iZr-19" value="Date" style="shape=partialRectangle;html=1;whiteSpace=wrap;connectable=0;fillColor=none;top=0;left=0;bottom=0;right=0;overflow=hidden;strokeColor=inherit;fontSize=16;" vertex="1" parent="ZRBj9t9u71oSII5r2iZr-18">
          <mxGeometry width="50" height="30" as="geometry">
            <mxRectangle width="50" height="30" as="alternateBounds" />
          </mxGeometry>
        </mxCell>
        <mxCell id="ZRBj9t9u71oSII5r2iZr-20" value="checkInTime" style="shape=partialRectangle;html=1;whiteSpace=wrap;connectable=0;fillColor=none;top=0;left=0;bottom=0;right=0;align=left;spacingLeft=6;overflow=hidden;strokeColor=inherit;fontSize=16;" vertex="1" parent="ZRBj9t9u71oSII5r2iZr-18">
          <mxGeometry x="50" width="130" height="30" as="geometry">
            <mxRectangle width="130" height="30" as="alternateBounds" />
          </mxGeometry>
        </mxCell>
        <mxCell id="xeD0g9C2wEjiB1h100mI-30" style="shape=tableRow;horizontal=0;startSize=0;swimlaneHead=0;swimlaneBody=0;top=0;left=0;bottom=0;right=0;collapsible=0;dropTarget=0;fillColor=none;points=[[0,0.5],[1,0.5]];portConstraint=eastwest;strokeColor=inherit;fontSize=16;" vertex="1" parent="ZRBj9t9u71oSII5r2iZr-17">
          <mxGeometry y="60" width="180" height="30" as="geometry" />
        </mxCell>
        <mxCell id="xeD0g9C2wEjiB1h100mI-31" value="String" style="shape=partialRectangle;html=1;whiteSpace=wrap;connectable=0;fillColor=none;top=0;left=0;bottom=0;right=0;overflow=hidden;strokeColor=inherit;fontSize=16;" vertex="1" parent="xeD0g9C2wEjiB1h100mI-30">
          <mxGeometry width="50" height="30" as="geometry">
            <mxRectangle width="50" height="30" as="alternateBounds" />
          </mxGeometry>
        </mxCell>
        <mxCell id="xeD0g9C2wEjiB1h100mI-32" value="shiftId" style="shape=partialRectangle;html=1;whiteSpace=wrap;connectable=0;fillColor=none;top=0;left=0;bottom=0;right=0;align=left;spacingLeft=6;overflow=hidden;strokeColor=inherit;fontSize=16;" vertex="1" parent="xeD0g9C2wEjiB1h100mI-30">
          <mxGeometry x="50" width="130" height="30" as="geometry">
            <mxRectangle width="130" height="30" as="alternateBounds" />
          </mxGeometry>
        </mxCell>
        <mxCell id="ZRBj9t9u71oSII5r2iZr-21" value="" style="shape=tableRow;horizontal=0;startSize=0;swimlaneHead=0;swimlaneBody=0;top=0;left=0;bottom=0;right=0;collapsible=0;dropTarget=0;fillColor=none;points=[[0,0.5],[1,0.5]];portConstraint=eastwest;strokeColor=inherit;fontSize=16;" vertex="1" parent="ZRBj9t9u71oSII5r2iZr-17">
          <mxGeometry y="90" width="180" height="30" as="geometry" />
        </mxCell>
        <mxCell id="ZRBj9t9u71oSII5r2iZr-22" value="UUID" style="shape=partialRectangle;html=1;whiteSpace=wrap;connectable=0;fillColor=none;top=0;left=0;bottom=0;right=0;overflow=hidden;strokeColor=inherit;fontSize=16;" vertex="1" parent="ZRBj9t9u71oSII5r2iZr-21">
          <mxGeometry width="50" height="30" as="geometry">
            <mxRectangle width="50" height="30" as="alternateBounds" />
          </mxGeometry>
        </mxCell>
        <mxCell id="ZRBj9t9u71oSII5r2iZr-23" value="employeeId" style="shape=partialRectangle;html=1;whiteSpace=wrap;connectable=0;fillColor=none;top=0;left=0;bottom=0;right=0;align=left;spacingLeft=6;overflow=hidden;strokeColor=inherit;fontSize=16;" vertex="1" parent="ZRBj9t9u71oSII5r2iZr-21">
          <mxGeometry x="50" width="130" height="30" as="geometry">
            <mxRectangle width="130" height="30" as="alternateBounds" />
          </mxGeometry>
        </mxCell>
        <mxCell id="ZRBj9t9u71oSII5r2iZr-24" style="edgeStyle=orthogonalEdgeStyle;rounded=0;orthogonalLoop=1;jettySize=auto;html=1;startArrow=ERone;startFill=0;endArrow=ERoneToMany;endFill=0;" edge="1" parent="1" source="ZRBj9t9u71oSII5r2iZr-1" target="ZRBj9t9u71oSII5r2iZr-17">
          <mxGeometry relative="1" as="geometry">
            <Array as="points">
              <mxPoint x="585" y="1170" />
              <mxPoint x="585" y="1115" />
            </Array>
          </mxGeometry>
        </mxCell>
        <mxCell id="ZRBj9t9u71oSII5r2iZr-25" value="CheckOut" style="shape=table;startSize=30;container=1;collapsible=0;childLayout=tableLayout;fixedRows=1;rowLines=0;fontStyle=0;strokeColor=default;fontSize=16;" vertex="1" parent="1">
          <mxGeometry x="640" y="1210" width="180" height="120" as="geometry" />
        </mxCell>
        <mxCell id="ZRBj9t9u71oSII5r2iZr-26" value="" style="shape=tableRow;horizontal=0;startSize=0;swimlaneHead=0;swimlaneBody=0;top=0;left=0;bottom=0;right=0;collapsible=0;dropTarget=0;fillColor=none;points=[[0,0.5],[1,0.5]];portConstraint=eastwest;strokeColor=inherit;fontSize=16;" vertex="1" parent="ZRBj9t9u71oSII5r2iZr-25">
          <mxGeometry y="30" width="180" height="30" as="geometry" />
        </mxCell>
        <mxCell id="ZRBj9t9u71oSII5r2iZr-27" value="Date" style="shape=partialRectangle;html=1;whiteSpace=wrap;connectable=0;fillColor=none;top=0;left=0;bottom=0;right=0;overflow=hidden;strokeColor=inherit;fontSize=16;" vertex="1" parent="ZRBj9t9u71oSII5r2iZr-26">
          <mxGeometry width="50" height="30" as="geometry">
            <mxRectangle width="50" height="30" as="alternateBounds" />
          </mxGeometry>
        </mxCell>
        <mxCell id="ZRBj9t9u71oSII5r2iZr-28" value="checkOutTime" style="shape=partialRectangle;html=1;whiteSpace=wrap;connectable=0;fillColor=none;top=0;left=0;bottom=0;right=0;align=left;spacingLeft=6;overflow=hidden;strokeColor=inherit;fontSize=16;" vertex="1" parent="ZRBj9t9u71oSII5r2iZr-26">
          <mxGeometry x="50" width="130" height="30" as="geometry">
            <mxRectangle width="130" height="30" as="alternateBounds" />
          </mxGeometry>
        </mxCell>
        <mxCell id="xeD0g9C2wEjiB1h100mI-27" style="shape=tableRow;horizontal=0;startSize=0;swimlaneHead=0;swimlaneBody=0;top=0;left=0;bottom=0;right=0;collapsible=0;dropTarget=0;fillColor=none;points=[[0,0.5],[1,0.5]];portConstraint=eastwest;strokeColor=inherit;fontSize=16;" vertex="1" parent="ZRBj9t9u71oSII5r2iZr-25">
          <mxGeometry y="60" width="180" height="30" as="geometry" />
        </mxCell>
        <mxCell id="xeD0g9C2wEjiB1h100mI-28" value="String" style="shape=partialRectangle;html=1;whiteSpace=wrap;connectable=0;fillColor=none;top=0;left=0;bottom=0;right=0;overflow=hidden;strokeColor=inherit;fontSize=16;" vertex="1" parent="xeD0g9C2wEjiB1h100mI-27">
          <mxGeometry width="50" height="30" as="geometry">
            <mxRectangle width="50" height="30" as="alternateBounds" />
          </mxGeometry>
        </mxCell>
        <mxCell id="xeD0g9C2wEjiB1h100mI-29" value="shiftId" style="shape=partialRectangle;html=1;whiteSpace=wrap;connectable=0;fillColor=none;top=0;left=0;bottom=0;right=0;align=left;spacingLeft=6;overflow=hidden;strokeColor=inherit;fontSize=16;" vertex="1" parent="xeD0g9C2wEjiB1h100mI-27">
          <mxGeometry x="50" width="130" height="30" as="geometry">
            <mxRectangle width="130" height="30" as="alternateBounds" />
          </mxGeometry>
        </mxCell>
        <mxCell id="ZRBj9t9u71oSII5r2iZr-29" value="" style="shape=tableRow;horizontal=0;startSize=0;swimlaneHead=0;swimlaneBody=0;top=0;left=0;bottom=0;right=0;collapsible=0;dropTarget=0;fillColor=none;points=[[0,0.5],[1,0.5]];portConstraint=eastwest;strokeColor=inherit;fontSize=16;" vertex="1" parent="ZRBj9t9u71oSII5r2iZr-25">
          <mxGeometry y="90" width="180" height="30" as="geometry" />
        </mxCell>
        <mxCell id="ZRBj9t9u71oSII5r2iZr-30" value="UUID" style="shape=partialRectangle;html=1;whiteSpace=wrap;connectable=0;fillColor=none;top=0;left=0;bottom=0;right=0;overflow=hidden;strokeColor=inherit;fontSize=16;" vertex="1" parent="ZRBj9t9u71oSII5r2iZr-29">
          <mxGeometry width="50" height="30" as="geometry">
            <mxRectangle width="50" height="30" as="alternateBounds" />
          </mxGeometry>
        </mxCell>
        <mxCell id="ZRBj9t9u71oSII5r2iZr-31" value="employeeId" style="shape=partialRectangle;html=1;whiteSpace=wrap;connectable=0;fillColor=none;top=0;left=0;bottom=0;right=0;align=left;spacingLeft=6;overflow=hidden;strokeColor=inherit;fontSize=16;" vertex="1" parent="ZRBj9t9u71oSII5r2iZr-29">
          <mxGeometry x="50" width="130" height="30" as="geometry">
            <mxRectangle width="130" height="30" as="alternateBounds" />
          </mxGeometry>
        </mxCell>
        <mxCell id="ZRBj9t9u71oSII5r2iZr-32" style="edgeStyle=orthogonalEdgeStyle;rounded=0;orthogonalLoop=1;jettySize=auto;html=1;endArrow=ERoneToMany;endFill=0;startArrow=ERone;startFill=0;" edge="1" parent="1" source="ZRBj9t9u71oSII5r2iZr-1" target="ZRBj9t9u71oSII5r2iZr-25">
          <mxGeometry relative="1" as="geometry">
            <Array as="points">
              <mxPoint x="585" y="1190" />
              <mxPoint x="585" y="1255" />
            </Array>
          </mxGeometry>
        </mxCell>
        <mxCell id="xeD0g9C2wEjiB1h100mI-17" style="edgeStyle=orthogonalEdgeStyle;rounded=0;orthogonalLoop=1;jettySize=auto;html=1;startArrow=ERoneToMany;startFill=0;endArrow=ERoneToMany;endFill=0;" edge="1" parent="1" source="xeD0g9C2wEjiB1h100mI-1" target="ZRBj9t9u71oSII5r2iZr-1">
          <mxGeometry relative="1" as="geometry" />
        </mxCell>
        <mxCell id="xeD0g9C2wEjiB1h100mI-79" style="edgeStyle=orthogonalEdgeStyle;rounded=0;orthogonalLoop=1;jettySize=auto;html=1;startArrow=ERone;startFill=0;endArrow=ERoneToMany;endFill=0;" edge="1" parent="1" source="xeD0g9C2wEjiB1h100mI-68" target="xeD0g9C2wEjiB1h100mI-1">
          <mxGeometry relative="1" as="geometry" />
        </mxCell>
        <mxCell id="xeD0g9C2wEjiB1h100mI-68" value="Shift" style="shape=table;startSize=30;container=1;collapsible=0;childLayout=tableLayout;fixedRows=1;rowLines=0;fontStyle=0;strokeColor=default;fontSize=16;" vertex="1" parent="1">
          <mxGeometry x="640" y="1350" width="180" height="120" as="geometry" />
        </mxCell>
        <mxCell id="xeD0g9C2wEjiB1h100mI-69" style="shape=tableRow;horizontal=0;startSize=0;swimlaneHead=0;swimlaneBody=0;top=0;left=0;bottom=0;right=0;collapsible=0;dropTarget=0;fillColor=none;points=[[0,0.5],[1,0.5]];portConstraint=eastwest;strokeColor=inherit;fontSize=16;" vertex="1" parent="xeD0g9C2wEjiB1h100mI-68">
          <mxGeometry y="30" width="180" height="30" as="geometry" />
        </mxCell>
        <mxCell id="xeD0g9C2wEjiB1h100mI-70" value="String" style="shape=partialRectangle;html=1;whiteSpace=wrap;connectable=0;fillColor=none;top=0;left=0;bottom=0;right=0;overflow=hidden;strokeColor=inherit;fontSize=16;" vertex="1" parent="xeD0g9C2wEjiB1h100mI-69">
          <mxGeometry width="50" height="30" as="geometry">
            <mxRectangle width="50" height="30" as="alternateBounds" />
          </mxGeometry>
        </mxCell>
        <mxCell id="xeD0g9C2wEjiB1h100mI-71" value="shiftId" style="shape=partialRectangle;html=1;whiteSpace=wrap;connectable=0;fillColor=none;top=0;left=0;bottom=0;right=0;align=left;spacingLeft=6;overflow=hidden;strokeColor=inherit;fontSize=16;" vertex="1" parent="xeD0g9C2wEjiB1h100mI-69">
          <mxGeometry x="50" width="130" height="30" as="geometry">
            <mxRectangle width="130" height="30" as="alternateBounds" />
          </mxGeometry>
        </mxCell>
        <mxCell id="xeD0g9C2wEjiB1h100mI-72" style="shape=tableRow;horizontal=0;startSize=0;swimlaneHead=0;swimlaneBody=0;top=0;left=0;bottom=0;right=0;collapsible=0;dropTarget=0;fillColor=none;points=[[0,0.5],[1,0.5]];portConstraint=eastwest;strokeColor=inherit;fontSize=16;" vertex="1" parent="xeD0g9C2wEjiB1h100mI-68">
          <mxGeometry y="60" width="180" height="30" as="geometry" />
        </mxCell>
        <mxCell id="xeD0g9C2wEjiB1h100mI-73" value="Date" style="shape=partialRectangle;html=1;whiteSpace=wrap;connectable=0;fillColor=none;top=0;left=0;bottom=0;right=0;overflow=hidden;strokeColor=inherit;fontSize=16;" vertex="1" parent="xeD0g9C2wEjiB1h100mI-72">
          <mxGeometry width="50" height="30" as="geometry">
            <mxRectangle width="50" height="30" as="alternateBounds" />
          </mxGeometry>
        </mxCell>
        <mxCell id="xeD0g9C2wEjiB1h100mI-74" value="startTime" style="shape=partialRectangle;html=1;whiteSpace=wrap;connectable=0;fillColor=none;top=0;left=0;bottom=0;right=0;align=left;spacingLeft=6;overflow=hidden;strokeColor=inherit;fontSize=16;" vertex="1" parent="xeD0g9C2wEjiB1h100mI-72">
          <mxGeometry x="50" width="130" height="30" as="geometry">
            <mxRectangle width="130" height="30" as="alternateBounds" />
          </mxGeometry>
        </mxCell>
        <mxCell id="xeD0g9C2wEjiB1h100mI-75" style="shape=tableRow;horizontal=0;startSize=0;swimlaneHead=0;swimlaneBody=0;top=0;left=0;bottom=0;right=0;collapsible=0;dropTarget=0;fillColor=none;points=[[0,0.5],[1,0.5]];portConstraint=eastwest;strokeColor=inherit;fontSize=16;" vertex="1" parent="xeD0g9C2wEjiB1h100mI-68">
          <mxGeometry y="90" width="180" height="30" as="geometry" />
        </mxCell>
        <mxCell id="xeD0g9C2wEjiB1h100mI-76" value="Date" style="shape=partialRectangle;html=1;whiteSpace=wrap;connectable=0;fillColor=none;top=0;left=0;bottom=0;right=0;overflow=hidden;strokeColor=inherit;fontSize=16;" vertex="1" parent="xeD0g9C2wEjiB1h100mI-75">
          <mxGeometry width="50" height="30" as="geometry">
            <mxRectangle width="50" height="30" as="alternateBounds" />
          </mxGeometry>
        </mxCell>
        <mxCell id="xeD0g9C2wEjiB1h100mI-77" value="endTime" style="shape=partialRectangle;html=1;whiteSpace=wrap;connectable=0;fillColor=none;top=0;left=0;bottom=0;right=0;align=left;spacingLeft=6;overflow=hidden;strokeColor=inherit;fontSize=16;" vertex="1" parent="xeD0g9C2wEjiB1h100mI-75">
          <mxGeometry x="50" width="130" height="30" as="geometry">
            <mxRectangle width="130" height="30" as="alternateBounds" />
          </mxGeometry>
        </mxCell>
        <mxCell id="xeD0g9C2wEjiB1h100mI-1" value="EmployeeOfShift" style="shape=table;startSize=30;container=1;collapsible=0;childLayout=tableLayout;fixedRows=1;rowLines=0;fontStyle=0;strokeColor=default;fontSize=16;" vertex="1" parent="1">
          <mxGeometry x="340" y="1330" width="180" height="90" as="geometry" />
        </mxCell>
        <mxCell id="xeD0g9C2wEjiB1h100mI-14" style="shape=tableRow;horizontal=0;startSize=0;swimlaneHead=0;swimlaneBody=0;top=0;left=0;bottom=0;right=0;collapsible=0;dropTarget=0;fillColor=none;points=[[0,0.5],[1,0.5]];portConstraint=eastwest;strokeColor=inherit;fontSize=16;" vertex="1" parent="xeD0g9C2wEjiB1h100mI-1">
          <mxGeometry y="30" width="180" height="30" as="geometry" />
        </mxCell>
        <mxCell id="xeD0g9C2wEjiB1h100mI-15" value="UUID" style="shape=partialRectangle;html=1;whiteSpace=wrap;connectable=0;fillColor=none;top=0;left=0;bottom=0;right=0;overflow=hidden;strokeColor=inherit;fontSize=16;" vertex="1" parent="xeD0g9C2wEjiB1h100mI-14">
          <mxGeometry width="50" height="30" as="geometry">
            <mxRectangle width="50" height="30" as="alternateBounds" />
          </mxGeometry>
        </mxCell>
        <mxCell id="xeD0g9C2wEjiB1h100mI-16" value="Id" style="shape=partialRectangle;html=1;whiteSpace=wrap;connectable=0;fillColor=none;top=0;left=0;bottom=0;right=0;align=left;spacingLeft=6;overflow=hidden;strokeColor=inherit;fontSize=16;" vertex="1" parent="xeD0g9C2wEjiB1h100mI-14">
          <mxGeometry x="50" width="130" height="30" as="geometry">
            <mxRectangle width="130" height="30" as="alternateBounds" />
          </mxGeometry>
        </mxCell>
        <mxCell id="xeD0g9C2wEjiB1h100mI-24" style="shape=tableRow;horizontal=0;startSize=0;swimlaneHead=0;swimlaneBody=0;top=0;left=0;bottom=0;right=0;collapsible=0;dropTarget=0;fillColor=none;points=[[0,0.5],[1,0.5]];portConstraint=eastwest;strokeColor=inherit;fontSize=16;" vertex="1" parent="xeD0g9C2wEjiB1h100mI-1">
          <mxGeometry y="60" width="180" height="30" as="geometry" />
        </mxCell>
        <mxCell id="xeD0g9C2wEjiB1h100mI-25" value="String" style="shape=partialRectangle;html=1;whiteSpace=wrap;connectable=0;fillColor=none;top=0;left=0;bottom=0;right=0;overflow=hidden;strokeColor=inherit;fontSize=16;" vertex="1" parent="xeD0g9C2wEjiB1h100mI-24">
          <mxGeometry width="50" height="30" as="geometry">
            <mxRectangle width="50" height="30" as="alternateBounds" />
          </mxGeometry>
        </mxCell>
        <mxCell id="xeD0g9C2wEjiB1h100mI-26" value="shiftId" style="shape=partialRectangle;html=1;whiteSpace=wrap;connectable=0;fillColor=none;top=0;left=0;bottom=0;right=0;align=left;spacingLeft=6;overflow=hidden;strokeColor=inherit;fontSize=16;" vertex="1" parent="xeD0g9C2wEjiB1h100mI-24">
          <mxGeometry x="50" width="130" height="30" as="geometry">
            <mxRectangle width="130" height="30" as="alternateBounds" />
          </mxGeometry>
        </mxCell>
      </root>
    </mxGraphModel>
  </diagram>
</mxfile>
